# xmcd
#
# Track frame offsets: 
#        150
#        13257
#        26999
#        39822
#        52140
#        62812
#        75429
#        89976
#        103821
#        116737
#        129289
#        140705
#        152305
#        164458
#        177054
#        189605
#        202010
#        212839
#        225729
#        236788
#        248316
#        261977
#        274187
#        286915
#        296749
#        309957
#        322315
#        333858
#
# Disc length: 4593 seconds
#
# Revision: 0
# Processed by: cddbd v1.5.1PL0 Copyright (c) Steve Scherf et al.
# Submitted via: ExactAudioCopy v0.95a5
#
DISCID=a511ef1c
DTITLE=Various Artist - Midnite Blues Party Volume 2
DYEAR=2003
DGENRE=Blues
TTITLE0=Chocolate Williams and His Chocolateers - Good Story Blues
TTITLE1=Bob Carter Trio - Bonus Blues
TTITLE2=Bill Samuels Trio - New Jockey Blues
TTITLE3=Clifford Blivens w. Edgar Hayers and His Stardusters - Achin' 
TTITLE3=Heart Boogie
TTITLE4=Jack Surrell - Detroit Boogie
TTITLE5=Mike McKendrick's Three Cheers - Lonesome Baby Blues
TTITLE6=Gayle Brown - Gone Are the Days
TTITLE7=Old Man Mose - Kipp's Blues
TTITLE8=Lillie Mae and the House Rockers - Lovin' Man Blues
TTITLE9=Sister Rockaway w. JH Smalley and his Rockateers - Young Women
TTITLE9='s Advice
TTITLE10=Bobby Webb and the Jets - Feel the Same
TTITLE11=Billy Langford w. his Combo - BeBop on the Boogie
TTITLE12=Joe Dyson and Orchestra - Merc'O'Matic Boogie
TTITLE13=Horse Collar Williams and His Orchestra - You Ain't Nothin' Dad
TTITLE13=dy
TTITLE14=Herbert Beard w. Bob Carter's Orchestra - Gal! You Need A Whi
TTITLE14=ppin'
TTITLE15=Wini Brown - He's My Daddy
TTITLE16=Slim Tinsley and His Band - 606 Blues
TTITLE17=George Williams - A Woman Gets Tired of One Man All the Time
TTITLE18=Gorge Green - with Jimmy Binkley and his Jazz Quintet
TTITLE19=George Zimmerman and the Thrills - Ain't Got the Money to Pay F
TTITLE19=or This Drink
TTITLE20=Buddy Tate - Good Morning Judge
TTITLE21=Paula Watson - Pretty Papa Blues
TTITLE22=Little Leo - What's it All About?
TTITLE23=John Taylor and Orchestra - Alberta
TTITLE24=Bobby Prince w. Al Smith's Orchestra - Tell Me Why, Why, Why
TTITLE25=Jack Cooley and His Orchestra - 50 DynaFlow
TTITLE26=Gene Phillips - Big Bug Boogie
TTITLE27=Morris Lane and His Band - After Hours Blues
EXTD=
EXTT0=
EXTT1=
EXTT2=
EXTT3=
EXTT4=
EXTT5=
EXTT6=
EXTT7=
EXTT8=
EXTT9=
EXTT10=
EXTT11=
EXTT12=
EXTT13=
EXTT14=
EXTT15=
EXTT16=
EXTT17=
EXTT18=
EXTT19=
EXTT20=
EXTT21=
EXTT22=
EXTT23=
EXTT24=
EXTT25=
EXTT26=
EXTT27=
PLAYORDER=
